<mxfile host="app.diagrams.net" agent="Mozilla/5.0 (Windows NT 10.0; Win64; x64; rv:136.0) Gecko/20100101 Firefox/136.0" version="26.1.1">
  <diagram name="Page-1" id="7Y6v4a7YreBoYNFC9grS">
    <mxGraphModel dx="1235" dy="624" grid="0" gridSize="10" guides="1" tooltips="1" connect="1" arrows="1" fold="1" page="1" pageScale="1" pageWidth="850" pageHeight="1100" math="0" shadow="0">
      <root>
        <mxCell id="0" />
        <mxCell id="1" parent="0" />
        <mxCell id="mA7LT_Xy6iMUPtQZO4hU-1" value="Server" style="swimlane;fontStyle=1;align=center;verticalAlign=top;childLayout=stackLayout;horizontal=1;startSize=26;horizontalStack=0;resizeParent=1;resizeParentMax=0;resizeLast=0;collapsible=1;marginBottom=0;whiteSpace=wrap;html=1;" vertex="1" parent="1">
          <mxGeometry x="102" y="70" width="160" height="90" as="geometry" />
        </mxCell>
        <mxCell id="mA7LT_Xy6iMUPtQZO4hU-2" value="- ip : String" style="text;strokeColor=none;fillColor=none;align=left;verticalAlign=top;spacingLeft=4;spacingRight=4;overflow=hidden;rotatable=0;points=[[0,0.5],[1,0.5]];portConstraint=eastwest;whiteSpace=wrap;html=1;" vertex="1" parent="mA7LT_Xy6iMUPtQZO4hU-1">
          <mxGeometry y="26" width="160" height="24" as="geometry" />
        </mxCell>
        <mxCell id="mA7LT_Xy6iMUPtQZO4hU-3" value="" style="line;strokeWidth=1;fillColor=none;align=left;verticalAlign=middle;spacingTop=-1;spacingLeft=3;spacingRight=3;rotatable=0;labelPosition=right;points=[];portConstraint=eastwest;strokeColor=inherit;" vertex="1" parent="mA7LT_Xy6iMUPtQZO4hU-1">
          <mxGeometry y="50" width="160" height="8" as="geometry" />
        </mxCell>
        <mxCell id="mA7LT_Xy6iMUPtQZO4hU-4" value="&lt;div&gt;+ main(args : String[]) : void&lt;/div&gt;" style="text;strokeColor=none;fillColor=none;align=left;verticalAlign=top;spacingLeft=4;spacingRight=4;overflow=hidden;rotatable=0;points=[[0,0.5],[1,0.5]];portConstraint=eastwest;whiteSpace=wrap;html=1;" vertex="1" parent="mA7LT_Xy6iMUPtQZO4hU-1">
          <mxGeometry y="58" width="160" height="32" as="geometry" />
        </mxCell>
        <mxCell id="mA7LT_Xy6iMUPtQZO4hU-5" value="" style="text;strokeColor=none;fillColor=none;align=left;verticalAlign=middle;spacingTop=-1;spacingLeft=4;spacingRight=4;rotatable=0;labelPosition=right;points=[];portConstraint=eastwest;" vertex="1" parent="1">
          <mxGeometry x="472" y="240" width="20" height="14" as="geometry" />
        </mxCell>
        <mxCell id="mA7LT_Xy6iMUPtQZO4hU-10" value="ClientHandler" style="swimlane;fontStyle=1;align=center;verticalAlign=top;childLayout=stackLayout;horizontal=1;startSize=26;horizontalStack=0;resizeParent=1;resizeParentMax=0;resizeLast=0;collapsible=1;marginBottom=0;whiteSpace=wrap;html=1;" vertex="1" parent="1">
          <mxGeometry x="102" y="220" width="160" height="220" as="geometry">
            <mxRectangle x="50" y="160" width="100" height="30" as="alternateBounds" />
          </mxGeometry>
        </mxCell>
        <mxCell id="mA7LT_Xy6iMUPtQZO4hU-11" value="&lt;div&gt;{implements Runnable}&lt;/div&gt;&lt;div&gt;- clientSocket : Socket&lt;/div&gt;" style="text;strokeColor=none;fillColor=none;align=left;verticalAlign=top;spacingLeft=4;spacingRight=4;overflow=hidden;rotatable=0;points=[[0,0.5],[1,0.5]];portConstraint=eastwest;whiteSpace=wrap;html=1;" vertex="1" parent="mA7LT_Xy6iMUPtQZO4hU-10">
          <mxGeometry y="26" width="160" height="44" as="geometry" />
        </mxCell>
        <mxCell id="mA7LT_Xy6iMUPtQZO4hU-12" value="" style="line;strokeWidth=1;fillColor=none;align=left;verticalAlign=middle;spacingTop=-1;spacingLeft=3;spacingRight=3;rotatable=0;labelPosition=right;points=[];portConstraint=eastwest;strokeColor=inherit;" vertex="1" parent="mA7LT_Xy6iMUPtQZO4hU-10">
          <mxGeometry y="70" width="160" height="8" as="geometry" />
        </mxCell>
        <mxCell id="mA7LT_Xy6iMUPtQZO4hU-13" value="&lt;div&gt;+ ClientHandler(&lt;/div&gt;&lt;div&gt;&lt;span style=&quot;white-space: pre;&quot;&gt;&#x9;&lt;/span&gt;clientSocket : Socket)&lt;/div&gt;&lt;div&gt;+ run() : void&lt;/div&gt;&lt;div&gt;+ processLogin(&lt;/div&gt;&lt;div&gt;&lt;span style=&quot;white-space: pre;&quot;&gt;&#x9;&lt;/span&gt;username : String,&lt;/div&gt;&lt;div&gt;&lt;span style=&quot;white-space: pre;&quot;&gt;&#x9;&lt;/span&gt;password : String)&lt;/div&gt;&lt;div&gt;&lt;span style=&quot;white-space: pre;&quot;&gt;&#x9;&lt;/span&gt;: bool&lt;/div&gt;&lt;div&gt;+ makeTicket() : void&lt;/div&gt;&lt;div&gt;+ closeTicket(id : int) : void&lt;/div&gt;" style="text;strokeColor=none;fillColor=none;align=left;verticalAlign=top;spacingLeft=4;spacingRight=4;overflow=hidden;rotatable=0;points=[[0,0.5],[1,0.5]];portConstraint=eastwest;whiteSpace=wrap;html=1;" vertex="1" parent="mA7LT_Xy6iMUPtQZO4hU-10">
          <mxGeometry y="78" width="160" height="142" as="geometry" />
        </mxCell>
        <mxCell id="mA7LT_Xy6iMUPtQZO4hU-14" value="Ticket" style="swimlane;fontStyle=1;align=center;verticalAlign=top;childLayout=stackLayout;horizontal=1;startSize=26;horizontalStack=0;resizeParent=1;resizeParentMax=0;resizeLast=0;collapsible=1;marginBottom=0;whiteSpace=wrap;html=1;" vertex="1" parent="1">
          <mxGeometry x="657" y="130" width="160" height="170" as="geometry" />
        </mxCell>
        <mxCell id="mA7LT_Xy6iMUPtQZO4hU-15" value="&lt;div&gt;- id : int {id}&lt;/div&gt;&lt;div&gt;- dateCreated : Date&lt;/div&gt;&lt;div&gt;- isClosed : bool&lt;/div&gt;" style="text;strokeColor=none;fillColor=none;align=left;verticalAlign=top;spacingLeft=4;spacingRight=4;overflow=hidden;rotatable=0;points=[[0,0.5],[1,0.5]];portConstraint=eastwest;whiteSpace=wrap;html=1;" vertex="1" parent="mA7LT_Xy6iMUPtQZO4hU-14">
          <mxGeometry y="26" width="160" height="54" as="geometry" />
        </mxCell>
        <mxCell id="mA7LT_Xy6iMUPtQZO4hU-16" value="" style="line;strokeWidth=1;fillColor=none;align=left;verticalAlign=middle;spacingTop=-1;spacingLeft=3;spacingRight=3;rotatable=0;labelPosition=right;points=[];portConstraint=eastwest;strokeColor=inherit;" vertex="1" parent="mA7LT_Xy6iMUPtQZO4hU-14">
          <mxGeometry y="80" width="160" height="8" as="geometry" />
        </mxCell>
        <mxCell id="mA7LT_Xy6iMUPtQZO4hU-17" value="&lt;div&gt;+ Ticket()&lt;/div&gt;&lt;div&gt;+ getID() : int&lt;/div&gt;&lt;div&gt;+ getDateCreated() : Date&lt;/div&gt;&lt;div&gt;+ isClosed() : bool&lt;/div&gt;&lt;div&gt;+ close() : void&lt;/div&gt;" style="text;strokeColor=none;fillColor=none;align=left;verticalAlign=top;spacingLeft=4;spacingRight=4;overflow=hidden;rotatable=0;points=[[0,0.5],[1,0.5]];portConstraint=eastwest;whiteSpace=wrap;html=1;" vertex="1" parent="mA7LT_Xy6iMUPtQZO4hU-14">
          <mxGeometry y="88" width="160" height="82" as="geometry" />
        </mxCell>
        <mxCell id="mA7LT_Xy6iMUPtQZO4hU-18" value="Employee" style="swimlane;fontStyle=1;align=center;verticalAlign=top;childLayout=stackLayout;horizontal=1;startSize=26;horizontalStack=0;resizeParent=1;resizeParentMax=0;resizeLast=0;collapsible=1;marginBottom=0;whiteSpace=wrap;html=1;" vertex="1" parent="1">
          <mxGeometry x="658" y="336" width="160" height="220" as="geometry" />
        </mxCell>
        <mxCell id="mA7LT_Xy6iMUPtQZO4hU-19" value="&lt;div&gt;- id : int {id}&lt;/div&gt;&lt;div&gt;- username : String {unique}&lt;/div&gt;&lt;div&gt;- password : String&lt;/div&gt;&lt;div&gt;- isClosed : bool&lt;/div&gt;" style="text;strokeColor=none;fillColor=none;align=left;verticalAlign=top;spacingLeft=4;spacingRight=4;overflow=hidden;rotatable=0;points=[[0,0.5],[1,0.5]];portConstraint=eastwest;whiteSpace=wrap;html=1;" vertex="1" parent="mA7LT_Xy6iMUPtQZO4hU-18">
          <mxGeometry y="26" width="160" height="64" as="geometry" />
        </mxCell>
        <mxCell id="mA7LT_Xy6iMUPtQZO4hU-20" value="" style="line;strokeWidth=1;fillColor=none;align=left;verticalAlign=middle;spacingTop=-1;spacingLeft=3;spacingRight=3;rotatable=0;labelPosition=right;points=[];portConstraint=eastwest;strokeColor=inherit;" vertex="1" parent="mA7LT_Xy6iMUPtQZO4hU-18">
          <mxGeometry y="90" width="160" height="8" as="geometry" />
        </mxCell>
        <mxCell id="mA7LT_Xy6iMUPtQZO4hU-21" value="&lt;div&gt;+ Employee(&lt;/div&gt;&lt;div&gt;&lt;span style=&quot;white-space: pre;&quot;&gt;&#x9;&lt;/span&gt;username : String,&lt;/div&gt;&lt;div&gt;&lt;span style=&quot;white-space: pre;&quot;&gt;&#x9;&lt;/span&gt;password : String)&lt;/div&gt;&lt;div&gt;+ getID() : int&lt;/div&gt;&lt;div&gt;+ getUsername() : String&lt;/div&gt;&lt;div&gt;+ getPassword() : String&lt;/div&gt;&lt;div&gt;+ isClosed() : bool&lt;/div&gt;&lt;div&gt;+ close() : void&lt;/div&gt;" style="text;strokeColor=none;fillColor=none;align=left;verticalAlign=top;spacingLeft=4;spacingRight=4;overflow=hidden;rotatable=0;points=[[0,0.5],[1,0.5]];portConstraint=eastwest;whiteSpace=wrap;html=1;" vertex="1" parent="mA7LT_Xy6iMUPtQZO4hU-18">
          <mxGeometry y="98" width="160" height="122" as="geometry" />
        </mxCell>
        <mxCell id="mA7LT_Xy6iMUPtQZO4hU-24" value="Tickets" style="swimlane;fontStyle=1;align=center;verticalAlign=top;childLayout=stackLayout;horizontal=1;startSize=26;horizontalStack=0;resizeParent=1;resizeParentMax=0;resizeLast=0;collapsible=1;marginBottom=0;whiteSpace=wrap;html=1;" vertex="1" parent="1">
          <mxGeometry x="427" y="140" width="160" height="150" as="geometry" />
        </mxCell>
        <mxCell id="mA7LT_Xy6iMUPtQZO4hU-25" value="&lt;div&gt;- tickets : Ticket[] &lt;span style=&quot;white-space: pre;&quot;&gt;{static}&lt;/span&gt; &lt;/div&gt;&lt;div&gt;- numTickets : int&lt;/div&gt;" style="text;strokeColor=none;fillColor=none;align=left;verticalAlign=top;spacingLeft=4;spacingRight=4;overflow=hidden;rotatable=0;points=[[0,0.5],[1,0.5]];portConstraint=eastwest;whiteSpace=wrap;html=1;" vertex="1" parent="mA7LT_Xy6iMUPtQZO4hU-24">
          <mxGeometry y="26" width="160" height="34" as="geometry" />
        </mxCell>
        <mxCell id="mA7LT_Xy6iMUPtQZO4hU-26" value="" style="line;strokeWidth=1;fillColor=none;align=left;verticalAlign=middle;spacingTop=-1;spacingLeft=3;spacingRight=3;rotatable=0;labelPosition=right;points=[];portConstraint=eastwest;strokeColor=inherit;" vertex="1" parent="mA7LT_Xy6iMUPtQZO4hU-24">
          <mxGeometry y="60" width="160" height="8" as="geometry" />
        </mxCell>
        <mxCell id="mA7LT_Xy6iMUPtQZO4hU-27" value="&lt;div&gt;- Tickets()&lt;/div&gt;&lt;div&gt;+ generateTicket() : void&lt;/div&gt;&lt;div&gt;+ closeTicket(id : int) : void&lt;/div&gt;&lt;div&gt;+ getTickets() : Ticket[]&lt;/div&gt;&lt;div&gt;+ getNumTickets() : int&lt;/div&gt;" style="text;strokeColor=none;fillColor=none;align=left;verticalAlign=top;spacingLeft=4;spacingRight=4;overflow=hidden;rotatable=0;points=[[0,0.5],[1,0.5]];portConstraint=eastwest;whiteSpace=wrap;html=1;" vertex="1" parent="mA7LT_Xy6iMUPtQZO4hU-24">
          <mxGeometry y="68" width="160" height="82" as="geometry" />
        </mxCell>
        <mxCell id="mA7LT_Xy6iMUPtQZO4hU-28" value="Employees" style="swimlane;fontStyle=1;align=center;verticalAlign=top;childLayout=stackLayout;horizontal=1;startSize=26;horizontalStack=0;resizeParent=1;resizeParentMax=0;resizeLast=0;collapsible=1;marginBottom=0;whiteSpace=wrap;html=1;" vertex="1" parent="1">
          <mxGeometry x="427" y="366" width="160" height="180" as="geometry" />
        </mxCell>
        <mxCell id="mA7LT_Xy6iMUPtQZO4hU-29" value="&lt;div&gt;- employees : Employee[]&lt;/div&gt;&lt;div&gt;&lt;span style=&quot;white-space: pre;&quot;&gt;&#x9;&lt;/span&gt;{static}&lt;/div&gt;" style="text;strokeColor=none;fillColor=none;align=left;verticalAlign=top;spacingLeft=4;spacingRight=4;overflow=hidden;rotatable=0;points=[[0,0.5],[1,0.5]];portConstraint=eastwest;whiteSpace=wrap;html=1;" vertex="1" parent="mA7LT_Xy6iMUPtQZO4hU-28">
          <mxGeometry y="26" width="160" height="34" as="geometry" />
        </mxCell>
        <mxCell id="mA7LT_Xy6iMUPtQZO4hU-30" value="" style="line;strokeWidth=1;fillColor=none;align=left;verticalAlign=middle;spacingTop=-1;spacingLeft=3;spacingRight=3;rotatable=0;labelPosition=right;points=[];portConstraint=eastwest;strokeColor=inherit;" vertex="1" parent="mA7LT_Xy6iMUPtQZO4hU-28">
          <mxGeometry y="60" width="160" height="8" as="geometry" />
        </mxCell>
        <mxCell id="mA7LT_Xy6iMUPtQZO4hU-31" value="&lt;div&gt;- Employee()&lt;/div&gt;&lt;div&gt;+ getEmployees() : &lt;span style=&quot;white-space: pre;&quot;&gt;&#x9;&lt;/span&gt;Employee[]&lt;/div&gt;&lt;div&gt;+ makeEmployee(&lt;/div&gt;&lt;div&gt;&lt;span style=&quot;white-space: pre;&quot;&gt;&#x9;&lt;/span&gt;username : String,&lt;/div&gt;&lt;div&gt;&lt;span style=&quot;white-space: pre;&quot;&gt;&#x9;&lt;/span&gt;password : String)&lt;/div&gt;" style="text;strokeColor=none;fillColor=none;align=left;verticalAlign=top;spacingLeft=4;spacingRight=4;overflow=hidden;rotatable=0;points=[[0,0.5],[1,0.5]];portConstraint=eastwest;whiteSpace=wrap;html=1;" vertex="1" parent="mA7LT_Xy6iMUPtQZO4hU-28">
          <mxGeometry y="68" width="160" height="112" as="geometry" />
        </mxCell>
        <mxCell id="mA7LT_Xy6iMUPtQZO4hU-35" value="MessageObject" style="swimlane;fontStyle=1;align=center;verticalAlign=top;childLayout=stackLayout;horizontal=1;startSize=26;horizontalStack=0;resizeParent=1;resizeParentMax=0;resizeLast=0;collapsible=1;marginBottom=0;whiteSpace=wrap;html=1;" vertex="1" parent="1">
          <mxGeometry x="105" y="492" width="160" height="200" as="geometry" />
        </mxCell>
        <mxCell id="mA7LT_Xy6iMUPtQZO4hU-36" value="&lt;div&gt;- type : String&lt;/div&gt;&lt;div&gt;- dataField1 : String&lt;/div&gt;&lt;div&gt;- dataField2 : String&lt;/div&gt;" style="text;strokeColor=none;fillColor=none;align=left;verticalAlign=top;spacingLeft=4;spacingRight=4;overflow=hidden;rotatable=0;points=[[0,0.5],[1,0.5]];portConstraint=eastwest;whiteSpace=wrap;html=1;" vertex="1" parent="mA7LT_Xy6iMUPtQZO4hU-35">
          <mxGeometry y="26" width="160" height="54" as="geometry" />
        </mxCell>
        <mxCell id="mA7LT_Xy6iMUPtQZO4hU-37" value="" style="line;strokeWidth=1;fillColor=none;align=left;verticalAlign=middle;spacingTop=-1;spacingLeft=3;spacingRight=3;rotatable=0;labelPosition=right;points=[];portConstraint=eastwest;strokeColor=inherit;" vertex="1" parent="mA7LT_Xy6iMUPtQZO4hU-35">
          <mxGeometry y="80" width="160" height="8" as="geometry" />
        </mxCell>
        <mxCell id="mA7LT_Xy6iMUPtQZO4hU-38" value="&lt;div&gt;+ Message (&lt;/div&gt;&lt;div&gt;&lt;span style=&quot;white-space: pre;&quot;&gt;&#x9;&lt;/span&gt;type : String,&lt;/div&gt;&lt;div&gt;&lt;span style=&quot;white-space: pre;&quot;&gt;&#x9;&lt;/span&gt;df1 : String,&lt;/div&gt;&lt;div&gt;&lt;span style=&quot;white-space: pre;&quot;&gt;&#x9;&lt;/span&gt;df2 : String)&lt;/div&gt;&lt;div&gt;+ getType() : String&lt;/div&gt;&lt;div&gt;+ getData1() : String&lt;/div&gt;&lt;div&gt;+ getData2() : String&lt;/div&gt;" style="text;strokeColor=none;fillColor=none;align=left;verticalAlign=top;spacingLeft=4;spacingRight=4;overflow=hidden;rotatable=0;points=[[0,0.5],[1,0.5]];portConstraint=eastwest;whiteSpace=wrap;html=1;" vertex="1" parent="mA7LT_Xy6iMUPtQZO4hU-35">
          <mxGeometry y="88" width="160" height="112" as="geometry" />
        </mxCell>
        <mxCell id="mA7LT_Xy6iMUPtQZO4hU-41" value="&lt;div&gt;Singletons&lt;/div&gt;&lt;div&gt;(for global access)&lt;/div&gt;" style="ellipse;whiteSpace=wrap;html=1;" vertex="1" parent="1">
          <mxGeometry x="427" y="302" width="160" height="50" as="geometry" />
        </mxCell>
        <mxCell id="mA7LT_Xy6iMUPtQZO4hU-43" value="" style="endArrow=none;html=1;rounded=0;exitX=1.002;exitY=0.91;exitDx=0;exitDy=0;exitPerimeter=0;entryX=0.004;entryY=0.023;entryDx=0;entryDy=0;entryPerimeter=0;" edge="1" parent="1">
          <mxGeometry width="50" height="50" relative="1" as="geometry">
            <mxPoint x="261.68000000000006" y="264.09000000000003" as="sourcePoint" />
            <mxPoint x="427" y="263.83599999999996" as="targetPoint" />
          </mxGeometry>
        </mxCell>
        <mxCell id="mA7LT_Xy6iMUPtQZO4hU-45" value="*" style="text;html=1;align=center;verticalAlign=middle;whiteSpace=wrap;rounded=0;fontSize=16;" vertex="1" parent="1">
          <mxGeometry x="265" y="249" width="10" height="10" as="geometry" />
        </mxCell>
        <mxCell id="mA7LT_Xy6iMUPtQZO4hU-46" value="1" style="text;html=1;align=center;verticalAlign=middle;whiteSpace=wrap;rounded=0;fontSize=16;" vertex="1" parent="1">
          <mxGeometry x="413" y="248" width="10" height="10" as="geometry" />
        </mxCell>
        <mxCell id="mA7LT_Xy6iMUPtQZO4hU-50" value="" style="endArrow=none;html=1;rounded=0;exitX=1.002;exitY=0.91;exitDx=0;exitDy=0;exitPerimeter=0;entryX=0.004;entryY=0.023;entryDx=0;entryDy=0;entryPerimeter=0;" edge="1" parent="1">
          <mxGeometry width="50" height="50" relative="1" as="geometry">
            <mxPoint x="261.68000000000006" y="410.2500000000001" as="sourcePoint" />
            <mxPoint x="427" y="409.996" as="targetPoint" />
          </mxGeometry>
        </mxCell>
        <mxCell id="mA7LT_Xy6iMUPtQZO4hU-51" value="*" style="text;html=1;align=center;verticalAlign=middle;whiteSpace=wrap;rounded=0;fontSize=16;" vertex="1" parent="1">
          <mxGeometry x="265" y="396.84000000000003" width="10" height="10" as="geometry" />
        </mxCell>
        <mxCell id="mA7LT_Xy6iMUPtQZO4hU-52" value="1" style="text;html=1;align=center;verticalAlign=middle;whiteSpace=wrap;rounded=0;fontSize=16;" vertex="1" parent="1">
          <mxGeometry x="414" y="394.84000000000003" width="10" height="10" as="geometry" />
        </mxCell>
        <mxCell id="mA7LT_Xy6iMUPtQZO4hU-53" value="" style="endArrow=block;dashed=1;endFill=0;endSize=12;html=1;rounded=0;entryX=0.5;entryY=0;entryDx=0;entryDy=0;" edge="1" parent="1" target="mA7LT_Xy6iMUPtQZO4hU-10">
          <mxGeometry width="160" relative="1" as="geometry">
            <mxPoint x="182" y="160" as="sourcePoint" />
            <mxPoint x="450" y="210" as="targetPoint" />
          </mxGeometry>
        </mxCell>
        <mxCell id="mA7LT_Xy6iMUPtQZO4hU-55" value="new Thread()" style="edgeLabel;html=1;align=center;verticalAlign=middle;resizable=0;points=[];" vertex="1" connectable="0" parent="mA7LT_Xy6iMUPtQZO4hU-53">
          <mxGeometry x="0.0428" relative="1" as="geometry">
            <mxPoint y="-7" as="offset" />
          </mxGeometry>
        </mxCell>
        <mxCell id="mA7LT_Xy6iMUPtQZO4hU-60" value="" style="endArrow=diamondThin;endFill=1;endSize=24;html=1;rounded=0;entryX=1.003;entryY=0.023;entryDx=0;entryDy=0;entryPerimeter=0;exitX=0;exitY=-0.026;exitDx=0;exitDy=0;exitPerimeter=0;" edge="1" parent="1" source="mA7LT_Xy6iMUPtQZO4hU-17">
          <mxGeometry width="160" relative="1" as="geometry">
            <mxPoint x="660" y="215" as="sourcePoint" />
            <mxPoint x="587" y="214.70600000000007" as="targetPoint" />
            <Array as="points">
              <mxPoint x="599.52" y="214.82" />
            </Array>
          </mxGeometry>
        </mxCell>
        <mxCell id="mA7LT_Xy6iMUPtQZO4hU-62" value="" style="endArrow=diamondThin;endFill=1;endSize=24;html=1;rounded=0;entryX=1;entryY=0.144;entryDx=0;entryDy=0;entryPerimeter=0;exitX=0;exitY=0.129;exitDx=0;exitDy=0;exitPerimeter=0;" edge="1" parent="1" source="mA7LT_Xy6iMUPtQZO4hU-21" target="mA7LT_Xy6iMUPtQZO4hU-31">
          <mxGeometry width="160" relative="1" as="geometry">
            <mxPoint x="590" y="450" as="sourcePoint" />
            <mxPoint x="750" y="450" as="targetPoint" />
          </mxGeometry>
        </mxCell>
        <mxCell id="mA7LT_Xy6iMUPtQZO4hU-67" value="" style="endArrow=classic;html=1;rounded=0;entryX=0.517;entryY=1.007;entryDx=0;entryDy=0;entryPerimeter=0;exitX=0.5;exitY=0;exitDx=0;exitDy=0;" edge="1" parent="1" source="mA7LT_Xy6iMUPtQZO4hU-35" target="mA7LT_Xy6iMUPtQZO4hU-13">
          <mxGeometry width="50" height="50" relative="1" as="geometry">
            <mxPoint x="318" y="495" as="sourcePoint" />
            <mxPoint x="368" y="445" as="targetPoint" />
          </mxGeometry>
        </mxCell>
        <mxCell id="mA7LT_Xy6iMUPtQZO4hU-68" value="*" style="text;html=1;align=center;verticalAlign=middle;resizable=0;points=[];autosize=1;strokeColor=none;fillColor=none;" vertex="1" parent="1">
          <mxGeometry x="181" y="436" width="30" height="30" as="geometry" />
        </mxCell>
        <mxCell id="mA7LT_Xy6iMUPtQZO4hU-69" value="*" style="text;html=1;align=center;verticalAlign=middle;resizable=0;points=[];autosize=1;strokeColor=none;fillColor=none;" vertex="1" parent="1">
          <mxGeometry x="181" y="470" width="30" height="30" as="geometry" />
        </mxCell>
      </root>
    </mxGraphModel>
  </diagram>
</mxfile>
